<svg width="431" height="431" viewBox="0 0 431 431" fill="none" xmlns="http://www.w3.org/2000/svg">
<path d="M91.1631 301.654L69.2959 229.483L66.8774 230.216L63.5301 212.747L86.8234 205.689C93.3574 203.709 98.4616 203.738 102.136 205.775C105.87 207.701 108.713 211.888 110.668 218.338L119.461 247.359C121.415 253.808 121.386 258.912 119.375 262.671C117.423 266.32 113.181 269.134 106.647 271.114L101.301 272.734L108.474 296.409L91.1631 301.654ZM92.3346 222.503L86.6067 224.238L96.1712 255.805L101.899 254.069C102.323 253.941 102.471 253.664 102.343 253.24L93.1638 222.946C93.0353 222.522 92.7589 222.374 92.3346 222.503ZM149.06 284.112L127.193 211.941L115.355 215.527L110.226 198.598L151.085 186.219L156.214 203.148L144.504 206.696L166.371 278.867L149.06 284.112ZM195.052 270.177L173.185 198.006L161.347 201.592L156.218 184.663L197.077 172.283L202.206 189.212L190.496 192.761L212.363 264.932L195.052 270.177ZM231.625 259.095L209.758 186.924L207.339 187.657L203.992 170.188L221.939 164.75L228.997 188.044L232.886 161.434L249.433 156.42L243.256 198.871L278.72 244.826L262.173 249.839L238.368 218.974L248.936 253.85L231.625 259.095ZM293.748 240.272L271.881 168.102L260.043 171.688L254.914 154.759L295.773 142.379L300.902 159.308L289.192 162.857L311.059 235.027L293.748 240.272ZM339.74 226.337L317.873 154.166L306.035 157.753L300.906 140.824L341.765 128.444L346.894 145.373L335.184 148.921L357.051 221.092L339.74 226.337Z" fill="url(#paint0_linear_2_2)"/>
<path fill-rule="evenodd" clip-rule="evenodd" d="M84.7967 200.138C90.4414 149.879 125.207 105.348 176.68 89.752C228.153 74.1561 281.788 91.9022 314.379 130.577L291.77 137.427C264.252 110.287 223.129 98.6659 183.538 110.662C143.946 122.658 116.189 155.149 108.363 192.998L84.7967 200.138ZM117.547 302.019C150.359 338.387 202.38 354.682 252.363 339.538C302.346 324.394 336.575 281.966 343.683 233.502L321.176 240.321C312.44 276.723 285.166 307.656 246.752 319.295C208.338 330.934 168.482 320.341 141.011 294.91L117.547 302.019Z" fill="url(#paint1_linear_2_2)"/>
<defs>
<linearGradient id="paint0_linear_2_2" x1="338.315" y1="107.651" x2="380.071" y2="245.464" gradientUnits="userSpaceOnUse">
<stop stop-color="#FF00D6"/>
<stop offset="1" stop-color="#6F7DFF"/>
</linearGradient>
<linearGradient id="paint1_linear_2_2" x1="252.363" y1="339.538" x2="176.68" y2="89.7519" gradientUnits="userSpaceOnUse">
<stop stop-color="#FF00D6"/>
<stop offset="1" stop-color="#717FFF"/>
</linearGradient>
</defs>
</svg>
